<?xml version="1.0" standalone="no"?>
<!DOCTYPE svg PUBLIC "-//W3C//DTD SVG 20010904//EN"
 "http://www.w3.org/TR/2001/REC-SVG-20010904/DTD/svg10.dtd">
<svg version="1.0" xmlns="http://www.w3.org/2000/svg"
 width="25.000000pt" height="24.000000pt" viewBox="0 0 25.000000 24.000000"
 preserveAspectRatio="xMidYMid meet">
<metadata>
Created by potrace 1.10, written by Peter Selinger 2001-2011
</metadata>
<g transform="translate(0.000000,24.000000) scale(0.100000,-0.100000)"
fill="#000000" stroke="none">
<path d="M58 191 c-27 -24 -33 -36 -33 -71 0 -35 6 -47 33 -71 33 -30 82 -38
112 -19 9 5 19 5 27 -2 10 -8 13 -4 13 16 0 21 -5 26 -26 26 -14 0 -23 -4 -20
-9 7 -10 -16 -21 -43 -21 -10 0 -30 9 -45 21 -37 29 -37 89 0 118 15 12 37 21
49 21 30 0 75 -37 75 -61 0 -11 7 -19 16 -19 23 0 9 39 -27 73 -40 37 -88 37
-131 -2z"/>
<path d="M110 145 c0 -32 2 -35 30 -35 17 0 30 5 30 10 0 6 -7 10 -15 10 -9 0
-15 9 -15 25 0 16 -6 25 -15 25 -10 0 -15 -11 -15 -35z"/>
</g>
</svg>
